<svg width="328.99999999999994" height="436" xmlns="http://www.w3.org/2000/svg" xmlns:undefined="http://www.inkscape.org/namespaces/inkscape" xmlns:xlink="http://www.w3.org/1999/xlink">
 <defs>
  <linearGradient id="imagebot_33">
   <stop stop-color="#7c6e45" id="imagebot_41" offset="0"/>
   <stop stop-color="#d8d0a9" id="imagebot_40" offset="1"/>
  </linearGradient>
  <filter color-interpolation-filters="sRGB" height="1.65073" y="-0.32537" width="1.64625" x="-0.32313" id="imagebot_29">
   <feGaussianBlur id="imagebot_36" stdDeviation="5.42709" />
  </filter>
  <filter color-interpolation-filters="sRGB" height="1.75096" y="-0.37548" width="1.42812" x="-0.21406" id="imagebot_31">
   <feGaussianBlur id="imagebot_35" stdDeviation="5.14017" />
  </filter>
  <filter color-interpolation-filters="sRGB" height="1.53822" y="-0.26911" width="1.0949" x="-0.04745" id="imagebot_21">
   <feGaussianBlur id="imagebot_34" stdDeviation="2.51182" />
  </filter>
  <linearGradient y2="1.00306" x2="1.00306" y1="-0.00306" x1="-0.00306" id="imagebot_18" xlink:href="#imagebot_33"/>
 </defs>
 <g id="imagebot_2" label="Layer 1">
  <g label="Layer 1" transform="translate(2.05 0.0039978) matrix(1 0 0 1 -179.671 -321.233)" id="imagebot_3">
   <path fill="#d8d0a9" d="M 338.524 321.233 C 337.211 321.229 335.956 321.249 334.711 321.265 C 305.605 321.639 225.837 325.788 205.586 343.233 C 193.273 353.841 187.872 377.344 185.243 394.296 C 179.189 433.334 177.621 486.528 182.774 532.671 C 185.513 557.197 190.752 580.384 194.524 600.202 C 201.333 635.975 217.358 645.835 228.993 655.733 C 249.448 673.136 303.847 710.488 328.336 727.108 C 334.341 732.092 340.7 735.363 347.868 738.015 C 373.045 747.348 396.381 756.904 418.18 736.358 C 427.274 726.703 428.461 722.548 432.305 714.796 C 439.412 700.621 455.399 671.265 455.399 671.265 C 455.399 671.265 463.618 653.747 463.618 650.89 L 491.649 563.39 C 491.649 563.39 500.035 551.104 500.055 536.796 C 500.073 524.262 490.055 501.983 490.055 501.983 C 490.055 501.983 486.545 496.856 488.086 480.546 C 489.859 461.785 495.805 455.071 492.743 431.077 C 490.415 412.838 488.219 417.069 487.836 413.89 C 486.373 401.735 483.146 399.237 482.336 395.202 C 478.427 375.725 475.073 348.869 468.618 343.952 C 451.41 330.846 379.219 321.35 338.524 321.233 L 338.524 321.233 Z M 309.618 463.108 C 319.015 463.188 329.451 466.149 340.961 474.296 C 343.369 476 343.204 480.043 339.868 481.452 C 309.937 494.091 290.244 487.677 271.649 483.577 C 265.733 482.273 266.925 478.021 270.774 476.077 C 281.134 470.844 293.956 462.975 309.618 463.108 Z M 451.993 470.233 C 461.729 470.333 468.23 474.009 472.211 478.952 C 474.71 482.054 473.857 486.154 471.836 487.515 C 460.796 494.949 443.796 497.152 417.743 485.546 C 414.849 484.257 416.313 480.702 418.086 479.827 C 432.278 472.828 443.401 470.145 451.993 470.233 Z M 366.649 570.733 C 370.69 570.733 373.993 573.253 373.993 576.358 C 373.993 579.463 370.69 581.983 366.649 581.983 C 362.608 581.983 359.336 579.463 359.336 576.358 C 359.336 573.253 362.608 570.733 366.649 570.733 Z M 424.711 579.296 C 425.926 579.254 424.861 581.19 424.336 581.452 C 423.915 581.663 420.5 582.986 421.118 581.452 C 421.832 579.676 422.841 579.361 424.711 579.296 Z M 356.118 623.046 C 379.696 623.312 400.919 625.302 427.024 624.296 C 431.275 624.132 433.872 627.866 427.743 628.952 C 402.552 633.418 377.863 630.872 355.243 627.14 C 351.041 626.446 352.996 623.011 356.118 623.046 Z" id="imagebot_32"/>
   <path fill="#dfb5a5" fill-rule="evenodd" filter="url(#imagebot_31)" id="imagebot_30" d="M422.80664,482.24646C422.80664,491.31912 409.90552,498.67398 393.99115,498.67398C378.07681,498.67398 365.17566,491.31912 365.17566,482.24646C365.17566,473.1738 378.07681,465.81894 393.99115,465.81894C409.90552,465.81894 422.80664,473.1738 422.80664,482.24646z" transform="matrix(1.1425316,0,0,1.2736418,-160.9153,-83.218811)"/>
   <path fill="#dfb5a5" fill-rule="evenodd" filter="url(#imagebot_29)" id="imagebot_28" d="M615.62799,487.63254C615.62799,498.19254 606.22345,506.75308 594.62231,506.75308C583.02118,506.75308 573.61664,498.19254 573.61664,487.63254C573.61664,477.07254 583.02118,468.51199 594.62231,468.51199C606.22345,468.51199 615.62799,477.07254 615.62799,487.63254z" transform="matrix(0.73260396,-0.68065516,0.68065516,0.73260396,-289.51843,586.83005)"/>
   <path fill="#7c6e45" d="M342.82346,547.95654C342.82346,547.95654 299.55527,564.06635 276.84409,565.46124C262.37335,566.3501 233.75549,559.53656 233.75549,559.53656C260.38931,614.23187 304.25137,658.0462 343.63138,704.69122C305.25647,654.62885 270.31171,607.0437 244.79695,566.26917C244.79695,566.26917 263.38379,570.77899 272.80453,570.30872C294.7886,569.2113 336.89877,554.4198 336.89877,554.4198L341.74625,561.1524C341.77106,556.82068 339.59357,552.92932 342.82346,547.95654z" id="imagebot_27"/>
   <path fill="#7c6e45" stroke-width="1.5" d="M 360.313 526.719 A 0.75007 0.75007 0 0 0 359.625 527.719 C 359.625 527.719 359.91 528.67 360.125 529.813 C 360.34 530.955 360.415 532.293 360.188 532.844 C 359.365 534.836 357.655 536.271 355.625 537.594 C 353.595 538.916 351.264 540.1 349.344 541.719 C 347.436 543.327 343.688 546.594 343.688 546.594 A 0.75007 0.75007 0 1 0 344.656 547.719 C 344.656 547.719 348.424 544.468 350.313 542.875 C 352.048 541.412 354.317 540.224 356.438 538.844 C 358.558 537.463 360.56 535.865 361.563 533.438 C 362.058 532.238 361.829 530.779 361.594 529.531 C 361.359 528.284 361.031 527.25 361.031 527.25 A 0.75007 0.75007 0 0 0 360.312 526.719 L 360.313 526.719 Z" id="imagebot_26"/>
   <path fill="#7c6e45" stroke-width="1.5" d="M342.125,561.46875A0.75007,0.75007 0 0 0 341.53125,562.21875C341.44934,566.71307 342.9563,570.01019 345.375,572.5625C347.7937,575.11481 351.0752,576.95142 354.59375,578.78125A0.75007,0.75007 0 1 0 355.28125,577.46875C351.79135,575.65381 348.66595,573.84985 346.46875,571.53125C344.27155,569.21265 342.95554,566.40509 343.03125,562.25A0.75007,0.75007 0 0 0 342.125,561.46875z" id="imagebot_25"/>
   <path fill="#7c6e45" d="M370.86588,568.50409C365.63919,568.57941 362.57266,571.26648 361.49088,572.37909C362.81384,571.36096 364.62643,570.72284 366.64713,570.72284C370.68854,570.72284 373.99088,573.24286 373.99088,576.34784C373.99088,577.83136 373.21906,579.18622 371.99088,580.19159C372.17084,580.26147 372.34872,580.35309 372.52213,580.41034C378.75433,582.46729 392.17838,579.31659 392.17838,579.31659C392.17838,579.31659 379.77332,569.09802 372.24088,568.56659C371.77151,568.53351 371.30576,568.4978 370.86588,568.50409z" id="imagebot_24"/>
   <path fill="#7c6e45" d="M380.52597,435.11835C345.88434,375.38977 261.09912,362.64264 231.87038,417.3443C266.03946,386.84296 300.02649,387.81763 340.66904,404.95633C362.17783,414.33591 380.52597,435.11835 380.52597,435.11835z" id="imagebot_23"/>
   <path fill="#7c6e45" d="M214.08463,452.62909C219.30515,464.04749 224.96304,474.76105 236.70963,480.34784C226.75325,480.27863 218.24417,485.78497 209.77213,491.66034C223.18427,485.84796 236.70517,478.82654 249.11588,483.84784C242.60808,484.36795 234.55089,486.87338 228.08463,490.31659C221.15488,494.00659 209.77213,505.12909 209.77213,505.12909C209.77213,505.12909 224.63168,494.88367 232.95963,491.66034C239.72459,489.04196 248.35216,486.60223 255.58463,487.09784C274.85172,488.41818 293.3757,499.62216 311.08463,498.44159C328.55768,497.27676 359.32788,488.13498 358.99088,480.91034C358.21927,464.36905 324.6713,453.07452 301.81689,455.08298C285.70087,456.03674 274.62683,469.26816 261.26627,476.69904C257.49695,478.15857 252.96196,478.90576 246.95963,478.47284C232.25275,476.23456 222.7394,463.67773 214.08463,452.62909zM313.11588,458.94159C323.87692,459.0361 335.80981,462.97812 348.99088,473.84784C351.7475,476.12106 351.56122,481.53067 347.74088,483.41034C313.4671,500.27365 290.90903,491.72388 269.61588,486.25409C262.84137,484.51385 264.20868,478.81699 268.61588,476.22284C284.1062,463.56235 296.54337,458.79611 313.11588,458.94159z" id="imagebot_22"/>
   <path fill="#dfb5a5" filter="url(#imagebot_21)" d="M333.6875,621.5625C328.63885,621.55951 325.66779,631.45728 332.5,633.3125C369.28244,643.30023 409.32813,649.83752 449.8125,636.25C459.6626,632.94403 455.27115,622.33478 448.40625,622.9375C406.25171,626.63831 371.82657,621.58801 333.6875,621.5625zM356.125,623.03125C379.70328,623.29761 400.9259,625.28748 427.03125,624.28125C431.28253,624.11737 433.87915,627.85089 427.75,628.9375C402.5589,633.40338 377.87039,630.85693 355.25,627.125C351.04834,626.43176 353.00381,622.99597 356.125,623.03125z" id="imagebot_20"/>
   <path fill="#7c6e45" d="M462.08463,460.75409C441.80283,460.49173 412.19321,472.00107 411.24088,480.91034C410.16971,490.93137 432.20731,498.87613 445.14713,502.16034C450.68317,503.56543 456.6778,502.24915 462.27213,501.09784C468.15408,499.88733 473.24396,495.35104 479.24088,495.03534C480.76285,494.95523 482.34,495.40002 483.67838,496.12909C485.853,497.31372 489.05338,501.22284 489.05338,501.22284C489.05338,501.22284 486.77893,496.67062 485.14713,494.75409C483.25031,492.79581 479.34854,491.15042 483.67838,489.66034C485.53043,489.95251 487.99088,493.16034 487.99088,493.16034C487.99088,493.16034 484.7756,489.13272 485.02213,486.81659C485.1713,485.41513 487.58463,483.47284 487.58463,483.47284L482.05338,485.59784C482.05338,485.59784 481.18057,473.61389 478.02213,468.78534C475.74203,465.29956 472.16718,461.90686 468.05338,461.25409C466.1976,460.95963 464.18274,460.78122 462.08463,460.75409zM456.70963,465.94159C462.83231,465.58975 468.43857,467.68304 472.61588,472.09784C477.17737,476.91867 479.90457,487.13641 474.95435,491.69827C468.33423,497.79901 458.13007,497.96158 449.40814,496.89713C442.39368,495.5957 415.67227,490.54041 415.06339,482.64746C416.64053,473.58969 448.16791,466.43243 456.70963,465.94159z" id="imagebot_19"/>
   <path fill="url(#imagebot_18)" d="M239.41087,420.84525C273.61362,404.33292 297.49326,406.02097 331.38278,419.93481C347.3804,427.1156 362.0069,437.25977 373.25476,449.93002C389.74014,474.4812 406.29974,545.01324 401.80096,572.19385C384.26324,574.44336 387.40622,546.08209 382.14178,535.83789C354.4281,518.94354 376.65601,491.08075 361.4054,462.04871C334.50418,418.14676 286.05801,418.95923 239.41087,420.84525z" id="imagebot_17"/>
   <path fill="#7c6e45" d="M467.49088,392.62909C456.45618,392.93802 445.1525,397.38181 435.99088,403.34784C424.64224,410.73801 411.24088,438.34784 411.24088,438.34784C411.24088,438.34784 428.08823,415.86542 439.49088,410.34784C449.69666,405.40942 461.80786,401.51816 472.89713,403.87909C477.46674,404.85196 483.24026,409.05609 487.67838,412.78534C486.31982,402.79593 483.7728,399.72754 482.67838,396.41034C480.05231,394.76971 477.35748,393.46799 475.05338,393.09784C472.56235,392.69766 470.03735,392.5578 467.49088,392.62909z" id="imagebot_16"/>
   <path fill="#7c6e45" d="M476.58463,420.66034C470.07727,420.69485 463.56564,423.61526 457.55338,426.22284C449.69543,429.63089 443.32755,435.80289 435.99088,440.22284C428.24612,444.88867 418.43121,446.79324 412.30338,453.44159C410.09802,455.83429 408.961,459.13632 408.27213,462.31659C406.77084,469.24753 407.05203,476.61191 408.27213,483.59784C409.15259,488.63898 419.76361,516.89545 422.15179,523.2359C420.06308,517.44128 410.53964,489.82315 410.00787,485.22284C409.70737,482.62299 409.53741,479.95547 410.14713,477.41034C411.31226,472.54666 412.00934,466.97028 415.52213,463.41034C420.27567,458.59299 428.44366,459.06644 434.39713,455.84784C439.21667,453.24228 443.20706,449.32474 447.86588,446.44159C454.90219,442.0871 461.84607,437.23608 469.67838,434.56659C474.49765,432.92404 480.00781,430.28372 484.74088,432.16034C489.60321,434.08823 490.43909,443.00986 493.52213,446.84784C493.71667,442.41534 493.54102,437.3349 492.74088,431.06659C492.35974,428.08047 491.98254,425.7605 491.61588,423.84784C487.61679,422.28885 483.24124,421.35687 479.36588,420.84784C478.43765,420.72592 477.51425,420.6554 476.58463,420.66034z" id="imagebot_15"/>
   <path fill="#7c6e45" d="M491.47906,563.84546C491.47906,563.84546 481.82214,571.90656 476.39807,570.84735C443.29025,564.3822 447.70544,557.50977 434.92529,549.03375C438.28622,554.36682 440.11365,559.98352 439.23416,566.53851C439.23416,566.53851 454.90341,573.03033 463.20218,574.34833C468.96487,575.26349 475.30212,576.54706 480.70691,574.34833C485.3522,572.4585 491.47906,563.84546 491.47906,563.84546z" id="imagebot_14"/>
   <path fill="#7c6e45" d="M189.33463,469.59784C185.12543,476.09686 182.07008,482.59882 179.86588,489.09784C179.86288,489.10684 179.86888,489.11993 179.86588,489.12903C180.25117,503.90021 181.2018,518.59845 182.77213,532.66028C185.51105,557.18634 190.75002,580.37299 194.52213,600.19153C201.33093,635.96478 217.35664,645.82452 228.99088,655.72278C249.44576,673.12555 303.84567,710.47711 328.33463,727.09778C334.33908,732.0816 340.69809,735.35272 347.86588,738.00403C352.16144,739.5965 356.39474,741.20551 360.58463,742.66028C322.96042,708.82855 290.1889,673.80212 265.27213,632.78528L230.24088,575.16034C230.24088,575.16034 224.21176,597.25098 229.17838,606.41034C246.84381,638.98865 304.58463,692.03534 304.58463,692.03534C304.58463,692.03534 240.52538,640.67865 217.33463,607.47284C212.2724,600.22449 206.97968,592.05365 206.55338,583.22284C206.03325,572.4483 216.19569,563.3053 216.80338,552.53534C217.48575,540.44159 212.86121,528.53217 209.24088,516.97284C204.11842,500.6174 189.33463,469.59784 189.33463,469.59784z" id="imagebot_13"/>
   <path fill="#7c6e45" d="M240.45963,330.09784C225.07036,333.28647 212.17155,337.54852 205.58463,343.22284C193.27097,353.83047 187.8698,377.33307 185.24088,394.28534C184.98386,395.94278 184.73157,397.67224 184.49088,399.37909C189.21394,427.39114 197.64977,451.70383 206.02213,476.06659C206.02213,476.06659 197.89038,416.71024 206.02213,388.78534C208.64003,379.79532 211.75183,364.341 221.08463,365.09784C229.26161,365.76096 230.16248,379.5441 230.80338,387.72284C231.53052,397.00195 226.01207,412.66068 223.20963,419.91034C234.24985,394.30988 250.06042,384.80896 267.42838,380.72284C267.42838,380.72284 255.53047,367.06281 251.27213,359.16034C247.19112,351.58694 242.75041,337.71667 240.45963,330.09784zM222.95963,420.53534C222.65347,421.25739 222.38329,422.00656 222.08463,422.75409C222.29909,422.22952 222.62279,421.39487 222.95963,420.53534z" id="imagebot_12"/>
   <path fill="#7c6e45" d="M430.61642,699.03589C430.61642,699.03589 453.51324,658.02924 462.93286,636.55743C471.56915,616.87122 485.01575,575.96411 485.01575,575.96411C482.50226,575.56165 479.98874,577.26727 477.47525,581.88879C472.94897,598.18402 467.72235,614.24579 461.04773,629.82489C459.68835,632.9978 456.1001,634.90283 452.96863,638.44257C440.16116,652.91998 437.91833,678.83813 430.61642,699.03589z" id="imagebot_11"/>
   <path fill="#7c6e45" d="M469.08463,633.81659C464.04001,642.6452 458.29178,652.99933 454.86588,660.25409C448.33963,674.07422 440.01178,695.02686 433.11588,713.16034C440.53717,698.51898 455.39713,671.25409 455.39713,671.25409C455.39713,671.25409 463.61588,653.73627 463.61588,650.87909L469.08463,633.81659z" id="imagebot_10"/>
   <path fill="#7c6e45" d="M 436.71 570.004 C 433.964 570.498 429.84 578.141 425.178 580.254 C 425.114 580.436 425 580.615 424.897 580.785 C 426.327 580.469 428.46 579.632 431.678 577.567 C 434.323 575.87 439.48 572.33 437.335 570.035 C 437.135 569.979 436.927 569.965 436.71 570.004 L 436.71 570.004 Z" id="imagebot_9"/>
   <path fill="#181a15" d="M256.78094,567.75037L279.26779,571.11664C279.26779,571.11664 291.37241,586.40918 297.31113,594.95001C301.66806,601.216 307.66666,602.69379 312.39215,603.16376C329.18326,604.83374 344.33234,603.84094 348.88278,603.83704C360.77243,603.82684 363.9942,601.03143 366.79147,596.7005C371.68634,589.12195 374.32245,585.92804 376.89035,581.75415C376.89035,581.75415 388.62653,583.48981 394.52975,584.04321C400.70703,584.62238 407.05319,586.45801 413.11169,585.12042C415.151,584.67023 418.63242,582.15808 418.63242,582.15808L427.92337,598.85492C429.77075,602.17487 432.24136,603.99487 435.19458,604.24103L451.35281,605.58752C453.73004,605.78564 455.35345,604.46313 458.08539,598.31635L467.78033,576.50275L476.39804,577.31067C476.39804,577.31067 469.45438,602.31219 463.47147,613.93591C461.00885,618.72034 460.18494,619.65771 455.39236,620.12988C449.73557,620.68726 428.06967,622.08588 423.61453,620.93781C419.36215,619.84204 416.50375,615.65796 413.6503,612.32013C410.00848,608.06006 404.76328,598.047 404.76328,598.047C403.87289,596.617 401.2081,596.08691 399.71219,597.888L386.3833,613.93591C384.80368,615.83783 379.97949,622.47864 367.59937,622.14966L311.85355,620.66852C302.42056,620.41791 293.03409,615.12915 286.26968,608.54987C281.76682,604.17023 256.78094,567.75037 256.78094,567.75037z" id="imagebot_8"/>
   <path fill="#7c6e45" d="M307.54468,637.36536C307.54468,637.36536 337.14859,644.57281 342.82346,646.79095C352.26486,650.48138 375.06256,653.9278 397.22278,651.36914C404.20642,650.56281 411.23996,654.01746 418.22845,653.25427C425.90494,652.41595 433.30133,649.49127 440.31134,646.25238C444.15524,644.47638 451.0835,639.51978 451.0835,639.51978C451.0835,639.51978 443.26984,647.60242 438.42624,650.29193C432.74246,653.44794 426.2652,655.19806 419.84427,656.21661C405.0379,658.56537 389.8544,656.96613 374.87057,656.4859C364.61713,656.15735 354.10483,656.88873 344.16998,654.33148C331.14001,650.97754 307.54468,637.36536 307.54468,637.36536z" id="imagebot_7"/>
   <path fill="#181a15" d="M 398.522 651.254 C 398.085 651.273 397.646 651.329 397.21 651.379 C 387.954 652.448 378.606 652.455 370.147 651.848 C 373.941 654.828 377.784 658.163 379.991 661.067 C 382.544 664.426 384.842 668.418 385.116 672.629 C 385.529 678.978 380.328 684.609 379.71 690.942 C 378.659 701.708 382.111 712.483 382.678 723.285 C 383.027 729.92 381.722 736.664 382.96 743.192 C 383.236 744.652 383.848 746.559 384.553 748.41 C 387.564 748.651 390.536 748.639 393.491 748.317 C 396.601 744.089 401.699 736.2 403.835 730.535 C 414.584 702.024 411.298 691.556 405.96 668.192 C 407.182 663.052 413.846 657.249 419.585 653.067 C 419.133 653.13 418.694 653.205 418.241 653.254 C 411.689 653.97 405.075 650.966 398.522 651.254 L 398.522 651.254 Z" id="imagebot_6"/>
   <path fill="#181a15" d="M244.25835,415.18988C269.58331,391.29794 304.11972,394.31406 334.47507,405.22565C343.33429,408.41019 377.10336,425.69202 368.94592,435.38766C360.151,445.841 346.1022,426.30252 327.47318,421.11456C313.10242,414.85529 298.14844,408.27774 282.49945,407.38007C270.10684,406.66922 244.25835,415.18988 244.25835,415.18988z" id="imagebot_5"/>
   <path fill="#181a15" d="M468.95963,406.25409C468.56454,406.25909 468.16718,406.2872 467.77213,406.31659C454.64236,408.30145 416.20023,424.0701 422.27213,436.72284C426.45218,445.43335 446.34827,429.6575 454.30338,425.69159C462.96658,422.31552 472.6907,418.85367 481.77213,420.84784C485.61502,421.69171 488.54086,424.96326 491.49088,427.56659C491.76535,427.80881 492.07098,428.1304 492.36588,428.41034C490.17798,413.29303 488.19727,416.89108 487.83463,413.87909C487.76694,413.31708 487.69067,412.80716 487.61588,412.28534C487.0914,411.9697 486.57224,411.66025 486.08463,411.41034C480.79675,408.70026 474.88611,406.17383 468.95963,406.25409z" id="imagebot_4"/>
  </g>
  <title>Layer 1</title>
 </g>
 <metadata>image/svg+xmlOpen Clip Art LibraryGuy Fawkes mask (3d)2010-07-06T22:13:44http://openclipart.org/detail/71029/guy-fawkes-mask-(3d)-by-ronesronesGuy Fawkesclip artclipartmaskmememovie</metadata>
</svg>